<svg width="57" height="46" viewBox="0 0 57 46" fill="none" xmlns="http://www.w3.org/2000/svg">
<g opacity="0.7">
<path d="M12.0011 17.0577C16.3301 17.0577 19.8385 14.0955 19.8385 10.4406C19.8385 6.78558 16.3301 3.82513 12.0011 3.82513C7.6721 3.82513 4.16367 6.78731 4.16367 10.4423C4.16367 14.0973 7.6721 17.0594 12.0011 17.0594V17.0577Z" fill="white"/>
<path d="M40.7211 9.09943C40.8014 4.63604 36.5809 0.962804 31.2944 0.895025C26.008 0.827246 21.6573 4.39059 21.5771 8.85398C21.4968 13.3174 25.7172 16.9906 31.0037 17.0584C36.2902 17.1262 40.6408 13.5628 40.7211 9.09943Z" fill="white"/>
<path d="M36.6268 18.6714H6.88114C3.08068 18.6714 0 21.2741 0 24.4829V40.1706C0 43.3794 3.08068 45.9804 6.88114 45.9804H36.6268C40.4272 45.9804 43.5079 43.3794 43.5079 40.1706V26.8894H9.24821C8.48729 26.8894 7.87239 26.3703 7.87239 25.7278C7.87239 25.0854 8.48935 24.5662 9.24821 24.5662H43.5079V24.4846C43.5079 21.2759 40.4272 18.6749 36.6268 18.6749V18.6714ZM9.39833 36.0017C10.7885 36.0017 11.9135 36.9532 11.9135 38.1252C11.9135 39.2973 10.7865 40.2488 9.39833 40.2488C8.01018 40.2488 6.8832 39.2973 6.8832 38.1252C6.8832 36.9532 8.01018 36.0017 9.39833 36.0017Z" fill="white"/>
<path d="M52.5897 23.7789L46.7204 26.7932C46.4304 26.9425 46.2535 27.2064 46.2535 27.4929V37.1573C46.2535 37.4438 46.4304 37.7095 46.7204 37.8571L52.5897 40.8713C54.3912 41.7968 56.6986 40.7012 56.6986 38.9197V25.7288C56.6986 23.9473 54.3912 22.8534 52.5897 23.7772V23.7789Z" fill="white"/>
</g>
</svg>
