<svg width="40" height="51" viewBox="0 0 40 51" fill="none" xmlns="http://www.w3.org/2000/svg">
<path d="M29.572 11.5621C28.7128 11.5621 28.0156 10.8525 28.0156 9.9782V-6.10352e-05H0V50.9999H40V11.5621H29.572ZM7.93774 8.39435H20.5447C21.4039 8.39435 22.1012 9.10391 22.1012 9.9782C22.1012 10.8525 21.4039 11.5621 20.5447 11.5621H7.93774C7.0786 11.5621 6.38132 10.8525 6.38132 9.9782C6.38132 9.10391 7.0786 8.39435 7.93774 8.39435ZM24.7471 42.4471H7.93774C7.0786 42.4471 6.38132 41.7376 6.38132 40.8633C6.38132 39.989 7.0786 39.2794 7.93774 39.2794H24.7471C25.6062 39.2794 26.3035 39.989 26.3035 40.8633C26.3035 41.7376 25.6062 42.4471 24.7471 42.4471ZM32.0623 31.9937H7.93774C7.0786 31.9937 6.38132 31.2842 6.38132 30.4099C6.38132 29.5356 7.0786 28.826 7.93774 28.826H32.0623C32.9214 28.826 33.6187 29.5356 33.6187 30.4099C33.6187 31.2842 32.9214 31.9937 32.0623 31.9937ZM32.0623 22.0155H7.93774C7.0786 22.0155 6.38132 21.3059 6.38132 20.4316C6.38132 19.5573 7.0786 18.8478 7.93774 18.8478H32.0623C32.9214 18.8478 33.6187 19.5573 33.6187 20.4316C33.6187 21.3059 32.9214 22.0155 32.0623 22.0155Z" fill="white"/>
</svg>
